<svg xmlns="http://www.w3.org/2000/svg" xml:space="preserve" viewBox="0 0 985 1025"><path fill="#fff" d="m361 822 447 8 130-258-24-171-426-236-323 98-88 512z"/><path fill="#2563eb" d="M984 514c-11-138-128-263-249-358S488-1 363 0C239 2 116 68 83 162c-32 95 27 218 7 360C71 664-26 826 7 917c32 92 194 113 349 107s304-40 425-132c121-91 215-240 203-378zM325 396c11 10 24 19 40 26l49 24c17 9 32 19 47 30a131 131 0 0 1 52 110c0 33-10 65-29 91-19 27-48 49-85 65s-82 24-134 24a462 462 0 0 1-142-21l3-145h12l61 132 27 4 28 2c45 0 79-9 102-27s34-40 34-66c0-20-5-36-15-47s-23-21-38-29l-47-24c-16-7-31-16-45-26s-25-22-33-37-12-33-12-56c0-34 9-63 26-87s41-43 72-56 68-19 110-19a295 295 0 0 1 92 15l46-32h5l-5 178h-13l-43-110c-12-9-26-16-41-20s-31-6-49-6c-27 0-48 6-65 17s-25 29-26 52c0 15 5 28 16 38zm543 108a70 70 0 0 1-47 16c-13 0-21-4-25-11s-3-20 2-39c5-18 7-30 4-36s-9-9-19-10c-15 0-30 8-47 24s-30 39-40 69c-11 29-17 64-17 105 0 22 4 38 13 49s23 16 42 16c20 0 40-6 57-17s35-32 53-62h6c-16 41-33 72-50 95s-36 39-56 49c-21 9-44 14-69 14-44 0-77-12-98-35s-32-54-32-91a238 238 0 0 1 243-239c37 0 63 6 78 17s23 26 22 44c0 17-7 31-20 42z"/></svg>