<?xml version="1.0" standalone="no"?>
<!DOCTYPE svg PUBLIC "-//W3C//DTD SVG 20010904//EN"
 "http://www.w3.org/TR/2001/REC-SVG-20010904/DTD/svg10.dtd">
<svg version="1.0" xmlns="http://www.w3.org/2000/svg"
 width="1025.000000pt" height="1025.000000pt" viewBox="0 0 1025.000000 1025.000000"
 preserveAspectRatio="xMidYMid meet">
<metadata>
Created by potrace 1.14, written by Peter Selinger 2001-2017
</metadata>
<g transform="translate(0.000000,1025.000000) scale(0.100000,-0.100000)"
fill="#000000" stroke="none">
<path d="M3575 10235 c-1003 -93 -1906 -562 -2347 -1220 -274 -408 -344 -850
-257 -1605 11 -96 36 -287 54 -425 86 -627 105 -835 112 -1210 13 -724 -72
-1176 -427 -2250 -309 -936 -350 -1070 -414 -1346 -129 -559 -122 -908 23
-1204 61 -124 123 -206 234 -312 239 -226 619 -400 1104 -507 550 -121 1247
-173 1966 -148 1032 36 1785 152 2572 397 404 126 908 348 1260 555 1223 721
2183 1921 2485 3108 139 543 144 1003 19 1505 -127 505 -369 980 -769 1506
-672 885 -1899 1915 -2980 2502 -917 497 -1842 727 -2635 654z m2135 -2487 c0
-24 -49 -1727 -50 -1746 0 -2 -30 -2 -67 0 l-66 3 -77 195 c-42 107 -136 348
-209 535 -73 187 -139 349 -146 360 -7 11 -48 42 -92 68 -227 137 -455 191
-798 191 -158 -1 -208 -4 -294 -23 -331 -70 -528 -228 -590 -473 -62 -241 -19
-421 135 -567 116 -111 228 -178 629 -376 315 -155 397 -201 554 -305 212
-142 351 -267 450 -407 113 -158 193 -355 226 -552 24 -141 17 -431 -14 -574
-59 -279 -178 -515 -365 -729 -156 -178 -373 -338 -631 -463 -452 -220 -920
-306 -1590 -292 -334 7 -601 37 -877 97 -122 27 -391 101 -402 111 -8 7 6 918
20 1287 l6 163 61 -3 61 -3 136 -295 c223 -480 318 -686 392 -850 39 -85 73
-158 77 -162 11 -12 264 -46 436 -58 255 -18 564 12 765 75 354 112 614 359
687 653 23 92 22 312 -1 406 -38 156 -133 284 -308 417 -108 81 -163 111 -562
313 -402 202 -563 303 -697 436 -217 215 -308 453 -309 812 0 279 66 544 190
763 64 110 201 277 301 363 292 253 648 401 1129 468 161 23 665 26 810 6 151
-22 326 -58 453 -95 l118 -35 152 106 c84 58 186 130 227 159 45 32 86 52 103
53 24 0 27 -4 27 -32z m2750 -1533 c280 -51 438 -134 539 -286 57 -85 81 -169
81 -283 0 -168 -48 -285 -166 -403 -130 -129 -317 -199 -512 -191 -166 6 -249
65 -266 188 -9 60 8 171 50 343 44 174 53 280 30 324 -22 44 -60 71 -125 90
-142 41 -335 -44 -532 -234 -171 -165 -300 -392 -408 -718 -92 -278 -131 -474
-152 -775 -27 -390 15 -611 143 -746 97 -102 202 -138 403 -137 413 1 714 199
1022 671 66 101 77 112 103 112 17 0 30 -2 30 -3 0 -11 -86 -213 -132 -309
-134 -283 -281 -531 -416 -702 -81 -103 -226 -242 -328 -315 -221 -157 -481
-236 -815 -248 -737 -26 -1187 291 -1332 937 -18 82 -21 128 -21 335 -1 153 4
269 12 320 88 534 301 967 655 1332 365 375 819 612 1327 692 181 29 181 29
460 26 187 -2 280 -7 350 -20z"/>
</g>
</svg>
